<svg width="186" height="38" viewBox="0 0 186 38" fill="none" xmlns="http://www.w3.org/2000/svg">
<path d="M44.6729 26.5011C43.8527 26.3066 43.0711 25.9753 42.361 25.5211L43.4818 23.3555C44.1064 23.7488 44.7873 24.0449 45.501 24.2336C46.2565 24.4501 47.0382 24.5617 47.8241 24.5652C49.5668 24.5652 50.4387 24.1169 50.4399 23.2203C50.4399 22.7942 50.2182 22.4978 49.7749 22.331C49.0787 22.1049 48.363 21.9442 47.637 21.8512C46.7892 21.7378 45.9509 21.5626 45.1287 21.3269C44.4872 21.1336 43.9073 20.776 43.4466 20.2895C42.9723 19.7955 42.7352 19.1082 42.7352 18.2276C42.7352 17.0716 43.2292 16.1485 44.2172 15.4581C45.2052 14.7677 46.5397 14.4219 48.2206 14.4207C49.0849 14.4211 49.9466 14.5168 50.7901 14.7059C51.5254 14.8509 52.234 15.1083 52.8908 15.4692L51.77 17.6348C50.6817 17.0185 49.4489 16.7033 48.1983 16.7215C47.3425 16.7215 46.6928 16.845 46.2495 17.092C45.8048 17.3421 45.5825 17.6737 45.5825 18.0831C45.5825 18.5389 45.8203 18.8618 46.2958 19.052C47.0116 19.3033 47.7507 19.4826 48.5022 19.5874C49.3306 19.7035 50.1496 19.8787 50.9531 20.1117C51.578 20.3011 52.1446 20.6459 52.6 21.1139C53.0594 21.5857 53.2891 22.2545 53.2891 23.1202C53.2891 24.2614 52.7828 25.1735 51.77 25.8564C50.7573 26.5394 49.3796 26.8815 47.637 26.8827C46.6365 26.8865 45.6399 26.7582 44.6729 26.5011V26.5011Z" fill="black"/>
<path d="M61.6479 26.0694C61.2765 26.3563 60.8513 26.5655 60.3974 26.6845C59.8917 26.8236 59.3694 26.8928 58.8449 26.8901C57.4765 26.8901 56.4181 26.5406 55.6697 25.8416C54.9213 25.1425 54.5477 24.1242 54.5489 22.7867V11.8678H57.4685V14.6466H60.8031V16.9253H57.4685V22.7163C57.4685 23.3091 57.6198 23.7611 57.9224 24.0724C58.091 24.2335 58.2911 24.3581 58.5101 24.4384C58.7291 24.5187 58.9623 24.553 59.1951 24.5392C59.781 24.5604 60.357 24.3842 60.8309 24.039L61.6479 26.0694Z" fill="black"/>
<path d="M74.6453 14.5578V26.7253H71.8664V25.1506C71.3879 25.7243 70.7742 26.1699 70.0806 26.4474C69.334 26.7438 68.5366 26.8911 67.7334 26.8809C66.5998 26.8999 65.4798 26.6329 64.4766 26.1047C63.5357 25.6046 62.7578 24.8454 62.235 23.9168C61.6822 22.9126 61.4043 21.7802 61.4292 20.6341C61.4035 19.4915 61.6816 18.3625 62.235 17.3625C62.7615 16.4397 63.5387 15.6849 64.4766 15.1858C65.4799 14.6582 66.6 14.3918 67.7334 14.4114C68.4938 14.404 69.2486 14.543 69.9565 14.8208C70.6264 15.089 71.2286 15.5021 71.7201 16.0305V14.5485L74.6453 14.5578ZM70.7234 23.4018C71.4237 22.7028 71.7738 21.7833 71.7738 20.6434C71.7738 19.5034 71.4237 18.584 70.7234 17.8849C70.3745 17.5381 69.9584 17.2662 69.5006 17.0859C69.0428 16.9056 68.553 16.8207 68.0613 16.8364C67.5711 16.82 67.0828 16.9046 66.6268 17.085C66.1707 17.2654 65.7566 17.5377 65.4103 17.8849C64.7175 18.5852 64.3716 19.5047 64.3729 20.6434C64.3741 21.7821 64.7199 22.7016 65.4103 23.4018C65.7566 23.7491 66.1707 24.0213 66.6268 24.2017C67.0828 24.3821 67.5711 24.4667 68.0613 24.4504C68.5543 24.4671 69.0455 24.3827 69.5046 24.2024C69.9637 24.022 70.381 23.7496 70.7308 23.4018H70.7234Z" fill="black"/>
<path d="M83.8728 14.4207V17.1328C83.6499 17.0903 83.4236 17.0673 83.1966 17.0642C82.0592 17.0642 81.1718 17.3872 80.5345 18.0331C79.8973 18.679 79.578 19.6103 79.5768 20.8268V26.7253H76.659V14.5577H79.4378V16.3343C80.2776 15.0573 81.756 14.4194 83.8728 14.4207Z" fill="black"/>
<path d="M92.2908 26.0694C91.9201 26.3563 91.4955 26.5655 91.0422 26.6845C90.5365 26.8236 90.0142 26.8928 89.4897 26.8901C88.1188 26.8901 87.0604 26.5406 86.3145 25.8416C85.5685 25.1425 85.1949 24.1242 85.1937 22.7867V11.8678H88.1114V14.6466H91.446V16.9253H88.1114V22.7163C88.1114 23.3091 88.2633 23.7611 88.5672 24.0724C88.7358 24.2335 88.9359 24.3581 89.1549 24.4384C89.3738 24.5187 89.607 24.553 89.8398 24.5392C90.4252 24.5607 91.0008 24.3845 91.4738 24.039L92.2908 26.0694Z" fill="black"/>
<path d="M105.874 24.2225V26.7253H93.8321V24.7467L100.316 18.7278C101.047 18.0448 101.541 17.4489 101.798 16.9401C102.044 16.4724 102.177 15.9532 102.185 15.4247C102.185 14.6837 101.928 14.1137 101.415 13.7148C100.901 13.3159 100.146 13.1189 99.1489 13.1239C97.4829 13.1239 96.2064 13.6796 95.3197 14.7911L93.1948 13.1943C93.8708 12.3311 94.7603 11.6593 95.7754 11.2454C96.9258 10.7688 98.1614 10.5324 99.4064 10.5507C101.181 10.5507 102.598 10.9613 103.656 11.7826C104.715 12.6039 105.244 13.7204 105.244 15.132C105.25 15.9774 105.06 16.8127 104.688 17.5718C104.318 18.3314 103.602 19.1959 102.541 20.1654L98.1726 24.2225H105.874Z" fill="black"/>
<path d="M107.806 12.0605C107.637 11.9058 107.501 11.7176 107.409 11.5077C107.316 11.2978 107.268 11.0709 107.268 10.8415C107.268 10.6121 107.316 10.3853 107.409 10.1754C107.501 9.96551 107.637 9.77723 107.806 9.62256C108.166 9.29321 108.639 9.11538 109.127 9.12608C109.613 9.11088 110.088 9.2773 110.459 9.59292C110.63 9.73617 110.768 9.91601 110.861 10.1193C110.954 10.3225 111 10.544 110.996 10.7674C111.001 11.0033 110.957 11.2376 110.866 11.4554C110.775 11.6732 110.641 11.8698 110.47 12.0327C110.292 12.2041 110.081 12.3378 109.851 12.426C109.62 12.5141 109.374 12.5549 109.127 12.5459C108.641 12.5596 108.168 12.3858 107.806 12.0605V12.0605ZM107.665 14.5577H110.585V26.7253H107.656L107.665 14.5577Z" fill="black"/>
<path d="M132.204 15.7545C133.123 16.6437 133.582 17.9769 133.58 19.7541V26.7252H130.663V20.1191C130.663 19.0557 130.421 18.2529 129.938 17.7107C129.455 17.1686 128.763 16.9006 127.86 16.9067C126.88 16.9067 126.095 17.2223 125.503 17.8534C124.912 18.4845 124.616 19.3848 124.616 20.5544V26.7252H121.7V20.1191C121.7 19.0557 121.459 18.2529 120.976 17.7107C120.493 17.1686 119.799 16.9006 118.895 16.9067C117.899 16.9067 117.108 17.2186 116.524 17.8423C115.94 18.466 115.648 19.37 115.65 20.5544V26.7252H112.73V14.5577H115.509V16.1064C115.982 15.5553 116.58 15.1259 117.254 14.8541C117.996 14.5571 118.79 14.4098 119.59 14.4206C120.447 14.4041 121.296 14.5794 122.076 14.9338C122.784 15.2601 123.38 15.787 123.792 16.4492C124.322 15.7982 125.003 15.2858 125.776 14.956C126.623 14.5911 127.538 14.4087 128.46 14.4206C130.038 14.4206 131.286 14.8652 132.204 15.7545Z" fill="black"/>
<path d="M145.5 15.1951C146.442 15.6974 147.223 16.4558 147.752 17.3829C148.31 18.3776 148.592 19.5032 148.569 20.6434C148.592 21.7871 148.31 22.9161 147.752 23.915C147.226 24.8478 146.445 25.6107 145.5 26.114C144.497 26.6423 143.376 26.9092 142.243 26.8902C140.561 26.8902 139.229 26.3431 138.249 25.2489V31.1529H135.331V14.5578H138.11V16.1529C138.588 15.5791 139.202 15.1335 139.896 14.8561C140.642 14.5599 141.44 14.4126 142.243 14.4226C143.376 14.4024 144.496 14.6681 145.5 15.1951V15.1951ZM144.573 23.4019C145.266 22.7028 145.613 21.7834 145.613 20.6434C145.613 19.5035 145.266 18.584 144.573 17.885C144.227 17.5377 143.813 17.2655 143.357 17.0851C142.901 16.9047 142.413 16.8201 141.922 16.8364C141.262 16.8266 140.611 16.9874 140.031 17.3033C139.472 17.6152 139.011 18.0772 138.701 18.6371C138.378 19.2567 138.21 19.9449 138.21 20.6434C138.21 21.3419 138.378 22.0302 138.701 22.6497C139.01 23.2104 139.471 23.6726 140.031 23.9836C140.611 24.2995 141.262 24.4603 141.922 24.4504C142.411 24.4658 142.898 24.3806 143.353 24.2003C143.808 24.0199 144.221 23.7482 144.566 23.4019H144.573Z" fill="black"/>
<path d="M163.173 14.5578V26.7253H160.394V25.1506C159.915 25.7243 159.302 26.1699 158.608 26.4474C157.862 26.7435 157.064 26.8907 156.261 26.8809C155.129 26.9021 154.011 26.6384 153.008 26.114C152.066 25.6147 151.288 24.8552 150.766 23.9261C150.214 22.9218 149.936 21.7895 149.96 20.6434C149.935 19.5007 150.213 18.3718 150.766 17.3718C151.292 16.4485 152.07 15.6936 153.008 15.195C154.011 14.6674 155.131 14.4011 156.265 14.4207C157.025 14.4133 157.78 14.5523 158.488 14.8301C159.157 15.0988 159.76 15.5118 160.251 16.0398V14.5578H163.173ZM159.251 23.4018C159.951 22.7028 160.301 21.7833 160.301 20.6434C160.301 19.5035 159.951 18.584 159.251 17.8849C158.902 17.5383 158.486 17.2665 158.028 17.0862C157.57 16.9059 157.081 16.8209 156.589 16.8364C156.098 16.8195 155.609 16.9039 155.152 17.0843C154.696 17.2647 154.281 17.5372 153.934 17.8849C153.241 18.5852 152.895 19.5047 152.895 20.6434C152.895 21.7821 153.241 22.7016 153.934 23.4018C154.281 23.7491 154.695 24.0214 155.151 24.2017C155.607 24.3821 156.095 24.4668 156.585 24.4504C157.078 24.4664 157.568 24.3816 158.026 24.2013C158.485 24.021 158.902 23.749 159.251 23.4018V23.4018Z" fill="black"/>
<path d="M168.569 26.0917C167.574 25.5917 166.739 24.8213 166.161 23.8686C165.596 22.8898 165.298 21.7794 165.298 20.6489C165.298 19.5185 165.596 18.408 166.161 17.4292C166.739 16.4854 167.568 15.7203 168.555 15.2191C169.636 14.6726 170.834 14.3985 172.045 14.4207C173.167 14.3956 174.277 14.6462 175.279 15.1506C176.18 15.611 176.912 16.3452 177.369 17.2476L175.127 18.5241C174.8 17.9907 174.336 17.554 173.784 17.2588C173.064 16.8976 172.251 16.7631 171.452 16.8729C170.654 16.9827 169.907 17.3316 169.31 17.8738C168.595 18.5642 168.238 19.4905 168.238 20.6526C168.238 21.8148 168.592 22.7411 169.299 23.4314C170.007 24.1243 170.914 24.4701 172.019 24.4689C172.633 24.475 173.238 24.3299 173.783 24.0465C174.335 23.7517 174.798 23.3149 175.126 22.7812L177.367 24.0595C176.894 24.961 176.156 25.6965 175.253 26.1677C174.261 26.6766 173.158 26.9313 172.043 26.9087C170.836 26.9213 169.644 26.6409 168.569 26.0917V26.0917Z" fill="black"/>
<path d="M186 26.0694C185.629 26.3559 185.205 26.5651 184.751 26.6845C184.245 26.8236 183.722 26.8927 183.197 26.8901C181.827 26.8901 180.769 26.5406 180.022 25.8416C179.275 25.1425 178.901 24.1242 178.901 22.7867V11.8678H181.821V14.6466H185.155V16.9253H181.821V22.7163C181.821 23.3091 181.973 23.7611 182.276 24.0724C182.445 24.2336 182.644 24.3583 182.863 24.4387C183.082 24.519 183.315 24.5532 183.547 24.5392C184.133 24.5604 184.709 24.3842 185.183 24.039L186 26.0694Z" fill="black"/>
<path d="M36.9904 5.25797C38.1686 2.27351 35.2157 -0.670184 32.2312 0.498773L25.3953 3.19793C21.8213 1.57607 17.8145 1.16894 13.9872 2.03878C10.16 2.90861 6.72275 5.00757 4.20077 8.01491C1.6788 11.0222 0.210776 14.7726 0.0210225 18.6928C-0.168731 22.6131 0.930222 26.4877 3.14996 29.7245C4.1297 28.316 4.85976 26.7493 5.30817 25.0932C5.42801 24.6363 5.51835 24.1722 5.57865 23.7038C5.76579 22.3641 6.32292 21.1032 7.18741 20.0628C8.0519 19.0224 9.18947 18.2437 10.4722 17.8144C11.755 17.3851 13.1321 17.3221 14.4487 17.6325C15.7653 17.943 16.9691 18.6145 17.925 19.5717C18.8808 20.5288 19.5508 21.7336 19.8594 23.0506C20.1681 24.3676 20.1032 25.7446 19.6721 27.0268C19.2411 28.309 18.4609 29.4455 17.4194 30.3086C16.3778 31.1717 15.1161 31.7271 13.7762 31.9124C13.312 31.9719 12.8522 32.0616 12.3997 32.181C10.7432 32.6293 9.17641 33.3601 7.76836 34.3411C11.0056 36.5614 14.8809 37.6606 18.8019 37.4707C22.7228 37.2807 26.4737 35.812 29.4811 33.2891C32.4886 30.7662 34.5872 27.3279 35.4562 23.4998C36.3251 19.6716 35.9166 15.6642 34.2931 12.0902V12.0902L36.9904 5.25797ZM27.8796 23.5611C27.7384 23.917 27.4962 24.2238 27.1828 24.4438C26.8695 24.6638 26.4987 24.7874 26.116 24.7994C25.7333 24.8114 25.3555 24.7113 25.029 24.5114C24.7025 24.3114 24.4415 24.0204 24.2783 23.6741L22.6295 20.1654C21.5338 17.837 19.66 15.9638 17.3312 14.869L13.8114 13.2128C13.465 13.0497 13.1739 12.7888 12.974 12.4623C12.7741 12.1358 12.6741 11.758 12.6863 11.3753C12.6985 10.9927 12.8224 10.622 13.0427 10.3089C13.263 9.99577 13.5702 9.75399 13.9262 9.6133L32.7963 2.14754C33.152 2.00702 33.5411 1.97355 33.9156 2.05127C34.2901 2.12899 34.6338 2.31449 34.9042 2.58496C35.1747 2.85543 35.3602 3.19907 35.4379 3.57359C35.5156 3.94811 35.4822 4.33719 35.3417 4.69294L27.8796 23.5611Z" fill="black"/>
<path d="M9.19287 27.0383C9.46674 27.5814 9.90765 28.0223 10.4508 28.2962C10.5396 27.5298 10.8333 26.8015 11.3011 26.188C10.6875 26.6557 9.95925 26.9495 9.19287 27.0383V27.0383Z" fill="#FFCB00"/>
<path d="M10.6786 23.7612C10.6158 23.6982 10.5411 23.6482 10.459 23.6141C10.3768 23.5799 10.2887 23.5624 10.1997 23.5624C10.1107 23.5624 10.0226 23.5799 9.94045 23.6141C9.85828 23.6482 9.78364 23.6982 9.72082 23.7612C9.24325 24.2359 8.95202 24.8664 8.90015 25.5378C9.57241 25.4871 10.2039 25.1958 10.6786 24.7171C10.8048 24.5901 10.8757 24.4182 10.8757 24.2391C10.8757 24.06 10.8048 23.8882 10.6786 23.7612V23.7612Z" fill="#FFCB00"/>
<path d="M13.7261 26.8105C13.599 26.6843 13.4272 26.6134 13.2481 26.6134C13.069 26.6134 12.8972 26.6843 12.7701 26.8105C12.2915 27.2853 12.0001 27.9167 11.9495 28.589C12.6209 28.5371 13.2513 28.2459 13.7261 27.7683C13.7891 27.7055 13.8391 27.6308 13.8732 27.5487C13.9073 27.4665 13.9249 27.3784 13.9249 27.2894C13.9249 27.2004 13.9073 27.1123 13.8732 27.0301C13.8391 26.948 13.7891 26.8733 13.7261 26.8105Z" fill="#FFCB00"/>
<path d="M13.7762 31.9124C15.1163 31.7273 16.3783 31.1721 17.4202 30.3091C18.4622 29.4462 19.2428 28.3098 19.6743 27.0276C20.1058 25.7453 20.1712 24.3682 19.863 23.0509C19.5548 21.7336 18.8853 20.5283 17.9298 19.5706C16.9742 18.6129 15.7705 17.9407 14.4539 17.6295C13.1373 17.3184 11.76 17.3806 10.4768 17.8093C9.19359 18.2379 8.0554 19.0159 7.19012 20.0559C6.32484 21.0959 5.76677 22.3566 5.57865 23.6963C5.51836 24.1648 5.42802 24.6289 5.30818 25.0857C4.85977 26.7419 4.12971 28.3085 3.14996 29.7171C3.35189 30.0117 3.56493 30.3025 3.78909 30.586L7.51642 26.8586C7.47936 26.7197 7.44972 26.577 7.42564 26.4325C7.42651 26.4258 7.42651 26.4189 7.42564 26.4122C7.42564 26.3992 7.42564 26.3862 7.42564 26.3733C7.42656 26.3653 7.42656 26.3572 7.42564 26.3492C7.42564 26.3492 7.42564 26.3492 7.42564 26.3344C7.33397 25.671 7.39789 24.9954 7.61235 24.3611C7.82681 23.7267 8.18592 23.1509 8.66129 22.6793L8.71872 22.6274C9.11405 22.2627 9.62951 22.0559 10.1673 22.0461C10.705 22.0363 11.2277 22.2243 11.636 22.5743C12.0444 22.9244 12.31 23.4122 12.3825 23.9451C12.4549 24.4781 12.3292 25.0191 12.0292 25.4655C12.4765 25.1638 13.0192 25.0373 13.5538 25.1103C14.0884 25.1832 14.5773 25.4505 14.9274 25.861C15.2775 26.2716 15.4641 26.7966 15.4516 27.336C15.4392 27.8754 15.2285 28.3913 14.8599 28.7853C14.8436 28.8053 14.8263 28.8244 14.808 28.8427C14.3364 29.3181 13.7606 29.6772 13.1262 29.8916C12.4919 30.1061 11.8163 30.17 11.153 30.0784H11.1029H11.064H11.0437C10.9001 30.0556 10.7579 30.0253 10.6176 29.9876L6.89581 33.7001C7.18111 33.9242 7.4701 34.1373 7.76651 34.3411C9.17457 33.36 10.7413 32.6293 12.3979 32.181C12.851 32.0615 13.3114 31.9718 13.7762 31.9124Z" fill="#FFCB00"/>
<path d="M8.64644 28.8426C8.48663 28.6824 8.33924 28.5102 8.20553 28.3276L4.77832 31.7548C4.93208 31.9179 5.0877 32.0827 5.24701 32.2421C5.40633 32.4014 5.57121 32.557 5.73609 32.7108L9.16145 29.2836C8.97881 29.1499 8.80664 29.0025 8.64644 28.8426V28.8426Z" fill="#FFCB00"/>
<path d="M11.0491 30.0598H11.0695H11.1084H11.1473C11.8101 30.1547 12.4858 30.0942 13.1212 29.8829C13.7565 29.6717 14.334 29.3156 14.8079 28.8427C14.8262 28.8244 14.8435 28.8053 14.8598 28.7852C15.2285 28.3913 15.4391 27.8754 15.4515 27.336C15.464 26.7966 15.2774 26.2715 14.9273 25.861C14.5772 25.4504 14.0883 25.1832 13.5537 25.1102C13.0191 25.0373 12.4764 25.1637 12.0291 25.4655C12.3309 25.0182 12.4573 24.4755 12.3844 23.9409C12.3114 23.4064 12.0442 22.9174 11.6336 22.5673C11.2231 22.2172 10.698 22.0306 10.1586 22.0431C9.61923 22.0555 9.10332 22.2662 8.70937 22.6348L8.65194 22.6867C8.17657 23.1583 7.81745 23.7341 7.60299 24.3685C7.38854 25.0028 7.32461 25.6784 7.41629 26.3417C7.41629 26.3417 7.41629 26.3529 7.41629 26.3566C7.41721 26.3646 7.41721 26.3726 7.41629 26.3806C7.41629 26.3936 7.41629 26.4066 7.41629 26.4195C7.41716 26.4263 7.41716 26.4332 7.41629 26.4399C7.44037 26.5844 7.47001 26.7271 7.50706 26.866L3.789 30.5933C4.10023 30.9922 4.42998 31.3794 4.77826 31.7549L8.20547 28.3277C8.47281 28.6938 8.79527 29.0162 9.16139 29.2836L5.73047 32.7108C6.10098 33.0591 6.49187 33.3907 6.89016 33.7001L10.6175 29.9727C10.7597 30.0094 10.9038 30.0384 11.0491 30.0598V30.0598ZM12.7701 26.8104C12.833 26.7477 12.9077 26.6979 12.9898 26.664C13.0719 26.6301 13.1599 26.6126 13.2488 26.6127C13.3376 26.6128 13.4256 26.6304 13.5076 26.6645C13.5897 26.6986 13.6642 26.7485 13.727 26.8114C13.7898 26.8742 13.8395 26.9489 13.8734 27.031C13.9074 27.1131 13.9248 27.2011 13.9247 27.29C13.9246 27.3788 13.907 27.4668 13.8729 27.5488C13.8389 27.6309 13.789 27.7054 13.7261 27.7682C13.2513 28.2458 12.6209 28.537 11.9495 28.5889C12.0001 27.9166 12.2915 27.2852 12.7701 26.8104V26.8104ZM8.90018 25.5396C8.95162 24.8675 9.24288 24.2364 9.72086 23.7611C9.84762 23.6341 10.0196 23.5627 10.1991 23.5625C10.3785 23.5623 10.5507 23.6335 10.6777 23.7602C10.8047 23.887 10.8762 24.059 10.8763 24.2384C10.8765 24.4179 10.8054 24.59 10.6786 24.7171C10.2042 25.1964 9.57269 25.4885 8.90018 25.5396ZM9.72086 27.7626C9.50734 27.5488 9.32913 27.3024 9.19288 27.0327C9.95926 26.9439 10.6875 26.6502 11.3011 26.1824C10.8333 26.796 10.5396 27.5242 10.4508 28.2906C10.1814 28.1561 9.93509 27.9797 9.72086 27.7682V27.7626Z" fill="black"/>
<path d="M32.7962 2.14757L13.9281 9.61148C13.572 9.75216 13.2649 9.99395 13.0446 10.307C12.8242 10.6201 12.7003 10.9908 12.6881 11.3735C12.6759 11.7561 12.7759 12.134 12.9758 12.4605C13.1758 12.787 13.4668 13.0479 13.8132 13.211L17.333 14.8672C19.6622 15.9624 21.536 17.8363 22.6313 20.1654L24.2801 23.6742C24.4434 24.0205 24.7043 24.3115 25.0308 24.5114C25.3573 24.7113 25.7352 24.8114 26.1178 24.7994C26.5005 24.7874 26.8713 24.6638 27.1847 24.4438C27.498 24.2238 27.7402 23.917 27.8814 23.5612L35.3416 4.69297C35.4822 4.33721 35.5156 3.94814 35.4379 3.57362C35.3602 3.19909 35.1747 2.85546 34.9042 2.58499C34.6338 2.31452 34.2901 2.12901 33.9156 2.0513C33.5411 1.97358 33.152 2.00704 32.7962 2.14757V2.14757ZM29.1727 12.796C28.7297 13.2391 28.1652 13.5409 27.5507 13.6632C26.9362 13.7855 26.2992 13.7228 25.7203 13.4831C25.1414 13.2433 24.6466 12.8373 24.2985 12.3163C23.9503 11.7954 23.7645 11.1829 23.7645 10.5563C23.7645 9.9297 23.9503 9.3172 24.2985 8.79623C24.6466 8.27526 25.1414 7.86923 25.7203 7.62948C26.2992 7.38974 26.9362 7.32705 27.5507 7.44935C28.1652 7.57165 28.7297 7.87343 29.1727 8.31655C29.7661 8.91085 30.0995 9.7164 30.0995 10.5563C30.0995 11.3962 29.7661 12.2017 29.1727 12.796V12.796Z" fill="#68D072"/>
<path d="M29.1727 8.31656C28.7297 7.87344 28.1652 7.57165 27.5507 7.44936C26.9362 7.32706 26.2992 7.38975 25.7203 7.62949C25.1414 7.86924 24.6466 8.27527 24.2985 8.79623C23.9503 9.3172 23.7645 9.92971 23.7645 10.5563C23.7645 11.1829 23.9503 11.7954 24.2985 12.3163C24.6466 12.8373 25.1414 13.2433 25.7203 13.4831C26.2992 13.7228 26.9362 13.7855 27.5507 13.6632C28.1652 13.5409 28.7297 13.2391 29.1727 12.796C29.7661 12.2017 30.0995 11.3962 30.0995 10.5563C30.0995 9.71641 29.7661 8.91086 29.1727 8.31656V8.31656ZM27.937 11.5604C27.7384 11.7593 27.4852 11.8948 27.2095 11.9498C26.9338 12.0047 26.6481 11.9767 26.3883 11.8692C26.1286 11.7617 25.9065 11.5796 25.7503 11.3459C25.5941 11.1122 25.5107 10.8374 25.5107 10.5563C25.5107 10.2752 25.5941 10.0004 25.7503 9.76668C25.9065 9.53298 26.1286 9.35086 26.3883 9.24337C26.6481 9.13587 26.9338 9.10784 27.2095 9.16282C27.4852 9.21779 27.7384 9.3533 27.937 9.5522C28.2031 9.81862 28.3526 10.1798 28.3526 10.5563C28.3526 10.9328 28.2031 11.2939 27.937 11.5604Z" fill="black"/>
<path d="M26.933 11.9753C27.7167 11.9753 28.3521 11.34 28.3521 10.5563C28.3521 9.77254 27.7167 9.13721 26.933 9.13721C26.1493 9.13721 25.514 9.77254 25.514 10.5563C25.514 11.34 26.1493 11.9753 26.933 11.9753Z" fill="white"/>
</svg>
